# xmcd CD database file
#
# Track frame offsets:
#	150
#	13542
#	27865
#	42214
#	63262
#	76565
#	98377
#	129204
#	153934
#	194742
#	211592
#	230167
#	264872
#	290185
#
# Disc length: 4222 seconds
#
# Revision: 2
# Processed by: cddbd v1.5.2PL0 Copyright (c) Steve Scherf et al.
# Submitted via: CDex 1.51
#
DISCID=aa107c0e
DTITLE=Various Artist - WBGO 20th Anniversary Sampler
DYEAR=1999
DGENRE=Jazz
TTITLE0=T'aint Whatcha Do - Ella Fitzgerald, with Chick Webb Orch.
TTITLE1=Flying Home - Lionel Hampton
TTITLE2=God Bless The Child - Billie Holiday
TTITLE3=Oh, Lady Be Good - Count Basie and The Kansas City 7
TTITLE4=It's Love - Carmen McRae
TTITLE5=The Jeep Is Jumpin' - Duke Ellington and Coleman Hawkins
TTITLE6=Ala Mode - Art Blakey
TTITLE7=Lush Life - John Coltrane and Johnny Hartman
TTITLE8=Wise One - John Coltrane
TTITLE9=Blue Room - Sonny Rollins
TTITLE10=42nd Street - Eric Reed
TTITLE11=El Nino - Michael Brecker
TTITLE12=Nouveau Swing - Donald Harrison
TTITLE13=Impressions - Danilo Perez
EXTD=YEAR: 1999
EXTT0=
EXTT1=
EXTT2=
EXTT3=
EXTT4=
EXTT5=
EXTT6=
EXTT7=
EXTT8=
EXTT9=
EXTT10=
EXTT11=
EXTT12=
EXTT13=
PLAYORDER=
